<svg width="3295" height="2483" xmlns="http://www.w3.org/2000/svg" xmlns:xlink="http://www.w3.org/1999/xlink" xml:space="preserve" overflow="hidden"><defs><clipPath id="clip0"><rect x="614" y="-189" width="3295" height="2483"/></clipPath></defs><g clip-path="url(#clip0)" transform="translate(-614 189)"><path d="M715.424 2157.83 3881 2197.61 3881 2286 627 2246.22 627-189 715.424-189Z" fill="#717171" fill-rule="evenodd" fill-opacity="0.501961"/><path d="M968 955 3885 955 3885 1132 968 1132Z" fill="#919191" fill-rule="evenodd"/><path d="M932.751 1054.76C1199.57 802.879 1466.38 551.005 1953.21 685.191 2440.05 819.376 3521.69 1680.94 3853.75 1859.86" stroke="#FB8C00" stroke-width="230.312" stroke-miterlimit="8" fill="none" fill-rule="evenodd"/><path d="M614-189 968-189 968 2197 614 2197Z" fill="#919191" fill-rule="evenodd"/><path d="M614 1932 3885 1932 3885 2286 614 2286Z" fill="#919191" fill-rule="evenodd"/><path d="M901 2020 3885 1931.65 967.31 1931.65 967.31-189Z" fill="#717171" fill-rule="evenodd"/><path d="M627-189 653.53 416.286 675.638 1021.57C688.903 1428.04 697.746 1830.1 706.589 2236.56L675.638 2205.64C1215.08 2210.06 1750.09 2223.3 2289.54 2232.14L3094.27 2254.23C3364 2263.07 3633.72 2271.91 3899 2285.16 3629.3 2289.58 3359.57 2289.58 3089.85 2294L2285.11 2294C1745.67 2289.58 1210.66 2285.16 671.217 2276.32L640.265 2276.32 640.265 2245.39C635.843 1838.94 627 1436.88 627 1030.41L627 420.703 627-189Z" fill="#4B4B4B" fill-rule="evenodd" fill-opacity="0.6"/><path d="M967.758 1150.68C1226.44 906.278 1485.13 661.886 1957.13 792.086 2429.13 922.285 3477.82 1758.26 3799.76 1931.87" stroke="#C55A11" stroke-width="45.8333" stroke-miterlimit="8" fill="none" fill-rule="evenodd"/></g></svg>